<svg width="406" height="406" viewBox="0 0 406 406" fill="none" xmlns="http://www.w3.org/2000/svg">
<circle cx="203" cy="203" r="199" fill="#FF7700" stroke="black" stroke-width="8"/>
<path d="M98 325V233C98 216.431 111.431 203 128 203H287C303.569 203 317 216.431 317 233V325C317 341.569 303.569 355 287 355H128C111.431 355 98 341.569 98 325Z" fill="white"/>
<path d="M152 280.5V267.5C152 255.626 161.626 246 173.5 246C185.374 246 195 255.626 195 267.5V280.5C195 292.374 185.374 302 173.5 302C161.626 302 152 292.374 152 280.5Z" fill="white"/>
<path d="M221 280.5V267.5C221 255.626 230.626 246 242.5 246C254.374 246 264 255.626 264 267.5V280.5C264 292.374 254.374 302 242.5 302C230.626 302 221 292.374 221 280.5Z" fill="white"/>
<path d="M99 248H108C113.523 248 118 252.477 118 258V320C118 325.523 122.477 330 128 330H288C293.523 330 298 325.523 298 320V258C298 252.477 302.477 248 308 248H317M98 233V325C98 341.569 111.431 355 128 355H287C303.569 355 317 341.569 317 325V233C317 216.431 303.569 203 287 203H128C111.431 203 98 216.431 98 233ZM152 267.5V280.5C152 292.374 161.626 302 173.5 302C185.374 302 195 292.374 195 280.5V267.5C195 255.626 185.374 246 173.5 246C161.626 246 152 255.626 152 267.5ZM221 267.5V280.5C221 292.374 230.626 302 242.5 302C254.374 302 264 292.374 264 280.5V267.5C264 255.626 254.374 246 242.5 246C230.626 246 221 255.626 221 267.5Z" stroke="black" stroke-width="8" stroke-linejoin="round"/>
<path d="M173 248C161.954 248 153 256.954 153 268V282C153 293.046 161.954 302 173 302V302C184.046 302 193 293.046 193 282V268C193 256.954 184.046 248 173 248V248Z" fill="#060606" stroke="black" stroke-width="8" stroke-linejoin="round"/>
<path d="M242 248C230.954 248 222 256.954 222 268V282C222 293.046 230.954 302 242 302V302C253.046 302 262 293.046 262 282V268C262 256.954 253.046 248 242 248V248Z" fill="#060606" stroke="black" stroke-width="8" stroke-linejoin="round"/>
<path d="M264.368 220.086C222.36 229.237 193.602 229.404 148.34 219.993C141.489 218.568 136.642 212.472 136.642 205.475V170.158C111.172 168.567 92.3056 149.755 94.1207 123.412C95.9358 97.0697 115.779 72.5647 150.448 83.5303C151.987 56.0665 183.611 32.9702 217.431 38.9516C251.251 44.933 263.896 67.8971 260.483 91.5272C270.345 85.4692 293.16 80.7175 307.788 112.788C322.416 144.859 295.81 176.273 275.897 170.158V205.619C275.897 212.55 271.14 218.611 264.368 220.086Z" fill="white"/>
<path d="M136.642 154.222V170.158M275.897 154.222V170.158M154.713 108.539C152.379 105.051 148.836 90.0517 150.448 83.5303M257.474 104.344C257.474 104.344 260.214 98.4031 260.483 91.5272M260.483 91.5272C263.896 67.8971 251.251 44.933 217.431 38.9516C183.611 32.9702 151.987 56.0665 150.448 83.5303M260.483 91.5272C270.345 85.4692 293.16 80.7175 307.788 112.788C322.416 144.859 295.81 176.273 275.897 170.158M275.897 170.158V205.619C275.897 212.55 271.14 218.611 264.368 220.086C222.36 229.237 193.602 229.404 148.34 219.993C141.489 218.568 136.642 212.472 136.642 205.475V170.158M136.642 170.158C111.172 168.567 92.3056 149.755 94.1207 123.412C95.9358 97.0697 115.779 72.5647 150.448 83.5303M173.847 128.194C173.847 128.194 179.479 137.916 200.292 140.285M201.486 140.411C223.278 142.536 240.818 128.194 240.818 128.194M201.486 140.411C201.083 140.372 200.685 140.33 200.292 140.285M201.486 140.411L200.292 140.285M264.204 143.067C267.361 153.086 271.191 154.129 283.87 155.285M127.074 154.754C140.339 156.375 146.965 155.661 152.587 142.005" stroke="black" stroke-width="8" stroke-linejoin="round"/>
</svg>
